<?xml version="1.0" encoding="UTF-8" standalone="no"?>
<svg
   xmlns:dc="http://purl.org/dc/elements/1.1/"
   xmlns:cc="http://creativecommons.org/ns#"
   xmlns:rdf="http://www.w3.org/1999/02/22-rdf-syntax-ns#"
   xmlns:svg="http://www.w3.org/2000/svg"
   xmlns="http://www.w3.org/2000/svg"
   xmlns:sodipodi="http://sodipodi.sourceforge.net/DTD/sodipodi-0.dtd"
   xmlns:inkscape="http://www.inkscape.org/namespaces/inkscape"
   version="1.1"
   id="Layer_1"
   x="0px"
   y="0px"
   width="427.10001"
   height="312.19998"
   viewBox="0 0 427.10001 312.19998"
   enable-background="new 0 0 430.9 317.5"
   xml:space="preserve"
   inkscape:version="0.48.2 r9819"
   sodipodi:docname="Khanty-mansi-geo-stub.svg"><metadata
   id="metadata18"><rdf:RDF><cc:Work
       rdf:about=""><dc:format>image/svg+xml</dc:format><dc:type
         rdf:resource="http://purl.org/dc/dcmitype/StillImage" /></cc:Work></rdf:RDF></metadata><defs
   id="defs16" /><sodipodi:namedview
   pagecolor="#ffffff"
   bordercolor="#666666"
   borderopacity="1"
   objecttolerance="10"
   gridtolerance="10"
   guidetolerance="10"
   inkscape:pageopacity="0"
   inkscape:pageshadow="2"
   inkscape:window-width="1400"
   inkscape:window-height="988"
   id="namedview14"
   showgrid="false"
   fit-margin-top="0"
   fit-margin-left="0"
   fit-margin-right="0"
   fit-margin-bottom="0"
   inkscape:zoom="1.4866142"
   inkscape:cx="213.55"
   inkscape:cy="149.2233"
   inkscape:window-x="-8"
   inkscape:window-y="-8"
   inkscape:window-maximized="1"
   inkscape:current-layer="Слой_x0020_1" />
<g
   id="Слой_x0020_1"
   transform="translate(-1.9,-2.5000022)">
	<path
   d="m 35.6,158.7 1.9,0.6 v 4.7 c 0,3.8 -3.5,3.1 -3.5,9.3 V 185 c 0,5.1 1.4,5.3 4.7,7 0,11.8 -4.3,45.5 7,45.5 l 3.4,0 1.3,8.1 c 2.6,0.7 4.7,1.1 4.7,4.7 v 5.8 h 4.7 v 7 l 3.3,0.1 1.4,5.8 h 14 c 0.1,-6.6 3,-7 9.3,-7 h 18.7 l -1,-1.2 13.9,-11.7 c 15.8,0 6.7,-8.2 17.5,-8.2 2.9,0 8.6,5.6 9.3,8.2 h 4.7 c 7.3,0 3.2,3.5 12.8,3.5 l 2.4,4.6 6.9,0 4.7,5.8 v 7 c 0,3.8 3.5,3.1 3.5,9.3 v 5.8 l 3.2,0 2,9.6 15.2,8.9 0.7,-1.1 1.1,3.5 h 7 c 1.4,5.1 4.2,4.7 10.5,4.7 2.4,1.6 3,3.5 5.8,3.5 h 3.5 c 0.3,-3.8 2.6,-17.5 7,-17.5 h 9.3 c 0.3,-3.3 0,-4.7 3.5,-4.7 h 5.8 c 1.1,-4.7 3.5,-5.8 3.5,-10.5 l 0.9,-7.8 4.7,-10.4 1.4,0.6 v -8.2 c 0,-3.5 1.4,-3.2 4.4,-3.6 l 1.4,-4.6 c 8.6,0 5.2,-2.3 9.3,-2.3 h 3.5 c 2.8,0 3.4,1.9 5.8,3.5 11.2,0 29.5,-1.7 30.3,8.2 h 19.8 c 4,0 6.7,4.1 7,8.2 H 363 c 4,0 6.9,-3.2 7,-8.2 h 7.2 v -67.7 h -9.5 c -6.2,0 -11.5,-6.2 -11.7,-12.8 -2.6,-0.6 -2.7,-1.2 -5.8,-1.2 h -4.7 c -3.2,0 -3.2,0.6 -5.8,1.2 v 4.7 c 0,5.6 -2.9,0.3 -4.7,7 H 309.3 V 185 l -11,-3.2 0.5,-1.4 H 293 c -0.2,-7.3 -8,-18 -14,-18.7 v -2.9 L 35.6,158.7 z"
   id="path4"
   style="fill:#00971c;stroke:#00971c;stroke-opacity:1"
   inkscape:connector-curvature="0" />
	<path
   d="m 279,158.7 v -0.6 c -8,-0.2 -3.6,-2.3 -8.2,-2.3 h -23.3 l -1.1,-3.5 -7.1,0 -11.3,-12.1 c -16,-0.8 -21.3,3.8 -22.5,-11.3 -3.5,-0.8 -7,-0.7 -7,-4.7 v -14 h -2.3 V 97.5 c 0,-2.7 -0.8,-3.5 -3.5,-3.5 h -5.8 l -1.3,-4.6 -6.9,0 C 178,86.7 178.4,86 175.2,85.9 l -14,0.1 c -0.7,2.5 -0.3,3.4 -3.5,3.4 h -9.3 c -4.9,0 -0.9,-2.9 -8.2,-3.5 v -4.7 c 0,-2.8 -3.5,-4.4 -3.5,-11.7 V 66 l -0.9,0.9 -5.8,-5.8 0.9,-0.9 H 98.2 l 1,-0.7 -10.3,-14.3 -1.3,0.9 v -5.8 c -2.6,-1.4 -4.7,-1 -4.7,-4.7 0,-0.7 2.6,-3.4 3.5,-4.7 V 26.2 L 92.6,17.5 93.5,3 h -5.8 c -4,0 -3.2,5.1 -10.5,7 l 0,0 c -1.3,1.8 -0.2,2.3 -3.5,2.3 H 69 v 2.3 L 51.5,13.2 c -8.3,-0.5 -3.6,6.3 -12.9,8.4 V 38 h -3.5 c -0.7,8.1 -14,8.5 -14,21 l -4.4,2.7 -0.3,7.8 c 0,5.9 -5.6,13.6 -8.2,17.5 0,8 1.9,9.2 -5.8,9.3 v 17.5 H 6 c 1.7,3.2 2.6,9.6 4,11.1 4.1,4.3 2.8,-0.8 8.7,7.6 4.3,6.1 11.3,10.3 15.3,16.3 l 0,9.4 1.7,0.5 H 279 z"
   id="path6"
   style="fill:#2e96ff;stroke:#2e96ff;stroke-opacity:1"
   inkscape:connector-curvature="0" />
	<path
   d="m 377.3,257.3 h 1 c 1,-3.6 2.3,-4.7 7,-4.7 h 4.7 v 3.5 c 2.6,0.6 2.7,1.2 5.8,1.2 h 1.2 c 4,0 4.5,-0.9 8.2,-1.2 v -4.7 c 5.7,-0.5 7,-2 14,-2.3 12.6,-0.5 -0.1,-5.7 9.3,-8.2 v -7 h -8.2 c -10.7,-7.1 -10.7,-11.4 -14,-25.7 -11.7,-0.3 -3.2,-7 -10.5,-7 h -4.7 v -3.5 c -7,-0.2 -11.5,-2.3 -12.8,-8.2 h -1 v 67.8 z"
   id="path8"
   style="fill:#ffffff;stroke:#00971c;stroke-opacity:1"
   inkscape:connector-curvature="0" />
	<path
   d="m 127.5,76.5 -25.5,35 H 68 L 42.5,76.5 M 106.2,78.7 85,108.4 63.8,78.7 m 8.4,11.8 8.5,-11.8 M 97.8,90.5 89.3,78.7"
   id="path10"
   inkscape:connector-curvature="0"
   style="fill:none;stroke:#ffffff;stroke-width:10;stroke-linecap:round" />
	
</g>
</svg>